<svg width="34" height="24" viewBox="0 0 34 24" fill="none" xmlns="http://www.w3.org/2000/svg">
<path d="M32.3 3.02857H1.7C1.3563 3.02857 1.026 2.89092 0.781942 2.64481C0.53777 2.39859 0.4 2.06393 0.4 1.71429C0.4 1.36464 0.53777 1.02998 0.781942 0.78376C1.026 0.537649 1.3563 0.4 1.7 0.4H32.3C32.6437 0.4 32.974 0.53765 33.2181 0.783759C33.4622 1.02998 33.6 1.36464 33.6 1.71429C33.6 2.06393 33.4622 2.39859 33.2181 2.64481C32.974 2.89092 32.6437 3.02857 32.3 3.02857ZM8.5 20.9714H32.3C32.6437 20.9714 32.974 21.1091 33.2181 21.3552C33.4622 21.6014 33.6 21.9361 33.6 22.2857C33.6 22.6354 33.4622 22.97 33.2181 23.2162C32.974 23.4624 32.6437 23.6 32.3 23.6H8.5C8.1563 23.6 7.826 23.4624 7.58194 23.2162C7.33777 22.97 7.2 22.6354 7.2 22.2857C7.2 21.9361 7.33777 21.6014 7.58194 21.3552C7.826 21.1091 8.1563 20.9714 8.5 20.9714ZM8.5 7.25714H32.3C32.6437 7.25714 32.974 7.39479 33.2181 7.6409C33.4622 7.88713 33.6 8.22178 33.6 8.57143C33.6 8.92108 33.4622 9.25573 33.2181 9.50195C32.974 9.74806 32.6437 9.88571 32.3 9.88571H8.5C8.1563 9.88571 7.826 9.74807 7.58194 9.50196C7.33777 9.25573 7.2 8.92107 7.2 8.57143C7.2 8.22178 7.33777 7.88713 7.58194 7.6409C7.826 7.39479 8.1563 7.25714 8.5 7.25714ZM1.7 14.1143H32.3C32.6437 14.1143 32.974 14.2519 33.2181 14.498C33.4622 14.7443 33.6 15.0789 33.6 15.4286C33.6 15.7782 33.4622 16.1129 33.2181 16.3591C32.974 16.6052 32.6437 16.7429 32.3 16.7429H1.7C1.3563 16.7429 1.026 16.6052 0.781942 16.3591C0.53777 16.1129 0.4 15.7782 0.4 15.4286C0.4 15.0789 0.53777 14.7443 0.781942 14.498C1.026 14.2519 1.3563 14.1143 1.7 14.1143Z" stroke="#F8C630" stroke-width="0.8"/>
</svg>
